<svg width="444" height="296" viewBox="0 0 444 296" fill="none"
    xmlns="http://www.w3.org/2000/svg">
    <path d="M267.141 0.5H150V21.0967H267.141V0.5Z" fill="#EBEBEB"/>
    <path d="M261.241 20.4531H155.89V25.7295H261.241V20.4531Z" fill="#DBDBDB"/>
    <path d="M155.89 25.7295V103.775H261.241V25.7295H155.89ZM184.725 100.337H168.419V68.0343H184.725V100.337ZM184.725 62.5086H168.419V30.2061H184.725V62.5086ZM206.057 100.337H189.751V68.0343H206.057V100.337ZM206.057 62.5086H189.751V30.2061H206.057V62.5086ZM227.39 100.337H211.083V68.0343H227.39V100.337ZM227.39 62.5086H211.083V30.2061H227.39V62.5086ZM248.722 100.337H232.416V68.0343H248.722V100.337ZM248.722 62.5086H232.416V30.2061H248.722V62.5086Z" fill="#EBEBEB"/>
    <path d="M251.896 26.8198V188.218H165.245V26.8198H155.89V188.218V197.556H165.245H251.896H261.251V188.218V26.8198H251.896Z" fill="#EBEBEB"/>
    <path d="M414.18 0.5H297.039V21.0967H414.18V0.5Z" fill="#EBEBEB"/>
    <path d="M408.28 20.4531H302.929V25.7295H408.28V20.4531Z" fill="#DBDBDB"/>
    <path d="M302.929 25.7295V103.775H408.28V25.7295H302.929ZM331.764 100.337H315.458V68.0343H331.764V100.337ZM331.764 62.5086H315.458V30.2061H331.764V62.5086ZM353.096 100.337H336.79V68.0343H353.096V100.337ZM353.096 62.5086H336.79V30.2061H353.096V62.5086ZM374.429 100.337H358.123V68.0343H374.429V100.337ZM374.429 62.5086H358.123V30.2061H374.429V62.5086ZM395.772 100.337H379.465V68.0343H395.772V100.337ZM395.772 62.5086H379.465V30.2061H395.772V62.5086Z" fill="#EBEBEB"/>
    <path d="M398.935 26.8198V188.218H312.284V26.8198H302.929V188.218V197.556H312.284H398.935H408.29V188.218V26.8198H398.935Z" fill="#EBEBEB"/>
    <path d="M405.44 230.731C405.44 230.731 390.559 235.986 376.959 230.616C363.348 225.247 390.039 222.484 382.869 218.1C375.7 213.717 357.718 212.834 357.843 205.117C358.02 193.37 372.161 208.264 375.315 202.261C378.468 196.257 348.706 190.202 351.401 183.419C354.097 176.627 368.811 188.571 368.061 183.7C367.312 178.829 348.321 165.679 358.009 160.403C372.338 152.602 371.724 181.436 377.76 177.779C383.795 174.123 378.582 165.991 383.462 167.092C391.558 168.909 382.89 194.741 390.029 193.505C397.167 192.269 392.495 178.777 397.188 181.321C401.881 183.866 392.016 213.8 396.023 211.754C400.029 209.708 401.299 199.083 405.471 200.557C409.644 202.032 405.44 230.751 405.44 230.751V230.731Z" fill="#67DFAE"/>
<path d="M361.526 164.381C361.526 164.381 396.106 221.778 401.434 228.633" stroke="#C7F9E4" strokeWidth="1.34" strokeMiterlimit="10" strokeLinecap="round"/>
<path d="M361.234 187.824L379.861 194.481L384.107 172.856" stroke="#C7F9E4" strokeWidth="1.34" strokeMiterlimit="10" strokeLinecap="round"/>
<path d="M368.342 208.503L389.986 211.266" stroke="#C7F9E4" strokeWidth="1.34" strokeMiterlimit="10" strokeLinecap="round"/>
<path d="M378.676 227.594L398.073 224.031L404.847 208.669" stroke="#C7F9E4" strokeWidth="1.34" strokeMiterlimit="10" strokeLinecap="round"/>
<path d="M359.986 168.266L365.595 170.914L366.178 163.986" stroke="#C7F9E4" strokeWidth="1.34" strokeMiterlimit="10" strokeLinecap="round"/>

    <path d="M392.849 221.777C392.849 221.777 376.438 211.962 378.415 203.258C380.403 194.544 400.799 218.599 388.561 197.286C379.726 181.903 375.991 175.702 381.121 173.583C386.251 171.475 398.614 190.69 396.532 175.65C394.451 160.61 400.247 151.024 406.043 152.488C411.84 153.942 417.105 159.998 408.853 177.613C400.559 195.323 418.541 174.549 425.076 179.161C431.601 183.773 418.271 199.55 408.104 208.098C397.937 216.646 437.98 204.328 407.303 225.631C393.462 235.239 392.859 221.777 392.859 221.777H392.849Z" fill="#09B770"/>
<path d="M407.698 157.879C407.698 157.879 395.668 209.22 394.503 224.551" stroke="#C7F9E4" strokeWidth="1.46" strokeMiterlimit="10" strokeLinecap="round"/>
<path d="M401.33 161.192L404.161 172.784L409.103 165.004" stroke="#C7F9E4" strokeWidth="1.46" strokeMiterlimit="10" strokeLinecap="round"/>
<path d="M415.814 189.714C410.081 194.471 398.644 199.986 398.644 199.986L388.207 185.341" stroke="#C7F9E4" strokeWidth="1.46" strokeMiterlimit="10" strokeLinecap="round"/>
<path d="M418.218 183.71L415.7 189.922L422.537 186.92" stroke="#C7F9E4" strokeWidth="1.46" strokeMiterlimit="10" strokeLinecap="round"/>
<path d="M388.031 178.87L388.249 185.57L382.869 180.397" stroke="#C7F9E4" strokeWidth="1.46" strokeMiterlimit="10" strokeLinecap="round"/>
<path d="M384.076 207.651L395.564 217.591" stroke="#C7F9E4" strokeWidth="1.46" strokeMiterlimit="10" strokeLinecap="round"/>
<path d="M396.751 221.456L412.849 215.743" stroke="#C7F9E4" strokeWidth="1.46" strokeMiterlimit="10" strokeLinecap="round"/>

    <path d="M403.452 235.343C403.452 235.343 394.857 227.366 393.723 216.564C392.588 205.762 403.588 222.37 404.014 216.138C404.441 209.916 398.832 197.785 403.973 195.198C411.798 191.272 406.824 205.699 411.871 205.71C416.918 205.71 410.674 184.053 416.085 183.482C421.496 182.911 418.687 196.715 421.642 194.544C424.597 192.373 426.741 175.349 433.568 179.909C443.661 186.65 424.4 196.175 428.895 198.886C433.391 201.597 436.96 195.365 437.917 198.958C439.509 204.91 419.457 208.099 422.735 212.378C426.013 216.657 433.318 208.93 433.255 212.897C433.193 216.865 410.029 220.677 412.755 222.609C415.482 224.541 422.943 221.715 423.401 224.966C423.869 228.218 403.452 235.343 403.452 235.343Z" fill="#67DFAE"/>
<path d="M432.142 183.606C432.142 183.606 406.137 226.119 403.452 231.987" stroke="#C7F9E4" strokeWidth="1.34" strokeMiterlimit="10" strokeLinecap="round"/>
<path d="M416.564 191.479L418.583 206.031L434.328 201.378" stroke="#C7F9E4" strokeWidth="1.34" strokeMiterlimit="10" strokeLinecap="round"/>
<path d="M405.356 203.279L410.986 218.474" stroke="#C7F9E4" strokeWidth="1.34" strokeMiterlimit="10" strokeLinecap="round"/>
<path d="M396.314 216.646L405.347 228.176L417.824 227.345" stroke="#C7F9E4" strokeWidth="1.34" strokeMiterlimit="10" strokeLinecap="round"/>
<path d="M429.051 183.929L429.238 188.53L434.014 186.525" stroke="#C7F9E4" strokeWidth="1.34" strokeMiterlimit="10" strokeLinecap="round"/>

    <path d="M419.925 292.5H378.592L374.43 239.611H424.087L419.925 292.5Z" fill="#37474F"/>
    <path d="M427.938 226.462H370.902V239.611H427.938V226.462Z" fill="#37474F"/>
    <path d="M423.692 244.732L424.087 239.611H374.43L374.836 244.732H423.692Z" fill="#263238"/>
    <path d="M126.057 2.5H13.943C9.55619 2.5 6 6.05737 6 10.4456V283.554C6 287.943 9.55619 291.5 13.943 291.5H126.057C130.444 291.5 134 287.943 134 283.554V10.4456C134 6.05737 130.444 2.5 126.057 2.5Z" fill="#EAE6ED"/>
    <path d="M119.726 9.5H24.2736C20.2565 9.5 17 12.7542 17 16.7685V284.232C17 288.246 20.2565 291.5 24.2736 291.5H119.726C123.744 291.5 127 288.246 127 284.232V16.7685C127 12.7542 123.744 9.5 119.726 9.5Z" fill="#DCDAE0"/>
    <path d="M274.152 195.898L241.175 269.251L224.679 262.041L245.228 189.461L274.152 195.898Z" fill="#F48462"/>
    <path d="M307.903 189.377L302.908 269.351L285.217 268.142L279.046 193.108L307.903 189.377Z" fill="#F48462"/>
    <path d="M254.864 124.376C254.864 124.376 212.436 241.287 212.739 243.22C213.042 245.152 254.342 260.277 254.342 260.277L279.533 185.21V141.702L254.864 124.359V124.376Z" fill="#50539E"/>
    <path d="M300.688 119.116C300.688 119.116 305.262 137.568 306.994 149.466C308.726 161.364 314.948 257.437 314.948 258.781C314.948 260.126 271.999 261.167 271.999 261.167C271.999 261.167 268.804 151.701 268.081 150.625C267.358 149.55 255.082 139.148 255.082 139.148L263.036 128.359L300.688 119.1V119.116Z" fill="#50539E"/>
    <path d="M316.395 286.476C315.991 285.434 315.554 284.459 315.234 283.737C314.915 282.997 314.545 282.308 314.091 281.686C312.981 280.157 310.812 277.031 310.257 275.418C309.533 273.25 308.39 268.579 307.65 266.411C306.91 264.243 303.379 262.042 303.379 262.042C303.379 262.042 285.738 261.117 284.242 262.378C282.745 263.604 280.525 275.099 280.525 276.662V278.225C280.525 279.804 279.315 283.132 278.676 285.619C278.575 285.938 278.507 286.241 278.457 286.526C278.373 287.047 278.306 287.484 278.306 287.854C278.306 287.854 286.209 289.971 298.401 289.971C307.953 289.971 316.428 286.509 316.428 286.509L316.395 286.476Z" fill="#F7C537"/>
    <path d="M316.395 286.476C318.598 285.602 314.831 293.248 304.707 294.122C294.113 295.046 281.989 293.719 280.509 293.097C279.012 292.492 278.289 290.005 278.289 287.82C278.289 287.82 298.939 293.45 316.412 286.459L316.395 286.476Z" fill="#FF7500"/>
    <path d="M237.392 286.593C240.788 280.493 244.253 268.478 246.607 261.201C246.607 261.201 229.555 251.135 227.47 251.068C225.368 251.001 200.581 253.488 200.581 253.488C200.581 253.488 193.03 251.656 188.456 253.723C187.111 254.328 186.035 255.219 185.228 256.176" fill="#F7C537"/>
    <path d="M237.392 286.593C235.525 289.954 234.029 292.173 233.423 292.257C231.725 292.492 183.496 263.016 183.008 262.008C182.655 261.319 183.227 258.496 185.211 256.177L237.375 286.593H237.392Z" fill="#FF7500"/>
    <path d="M251.265 69.7607C251.265 69.7607 234.853 85.4564 219.953 90.5987C205.323 95.6569 226.243 117.89 226.243 117.89C226.243 117.89 250.694 122.444 254.427 113.033C258.16 103.639 251.248 69.7607 251.248 69.7607H251.265Z" fill="#FF7500"/>
    <path d="M270.133 63.0896C270.133 63.0896 255.049 64.4171 249.399 71.6936C243.732 78.9701 251.215 124.578 251.619 125.217C252.022 125.855 262.532 130.494 280.828 130.09C299.141 129.687 301.882 127.67 302.488 126.696C303.093 125.721 306.271 72.8363 298.906 68.1646C293.642 64.8372 281.165 61.7284 270.116 63.0727L270.133 63.0896Z" fill="#FF7500"/>
    <path d="M279.113 55.208L278.894 65.0052C278.894 65.0052 277.061 67.778 271.31 68.1309C267.022 68.383 265.542 67.3915 265.542 67.3915L266.248 62.4341L266.938 57.6111L277.347 55.5609L279.096 55.208H279.113Z" fill="#F4A88E"/>
    <path d="M277.364 55.5605C277.331 55.8294 277.23 56.1487 277.062 56.5016C274.758 61.3414 268.738 62.2657 266.266 62.4337L266.955 57.6107L277.364 55.5605Z" fill="black"/>
    <path d="M265.256 35.2099C265.256 35.2099 259.841 47.3934 261.708 54.2665C263.574 61.1397 269.847 60.0978 273.597 58.8038C277.347 57.5099 279.096 55.2244 279.096 55.2244C279.096 55.2244 282.577 56.4344 284.948 53.2078C287.319 49.9813 285.89 46.2338 283.905 45.36C281.921 44.4861 279.533 45.9145 279.533 45.9145L281.417 42.3855C281.417 42.3855 273.715 24.3036 265.256 35.2267V35.2099Z" fill="#F4A88E"/>
    <path d="M303.547 109.723L305.229 131.35L255.486 133.821L269.208 124.376L303.547 109.723Z" fill="#FF7500"/>
    <path d="M265.727 50.7713C265.542 50.7713 265.374 50.6536 265.324 50.4688C264.516 47.8472 266.366 45.1753 266.433 45.0576C266.568 44.8728 266.837 44.8224 267.022 44.9568C267.207 45.0913 267.257 45.3433 267.123 45.545C267.106 45.5618 265.441 47.9985 266.131 50.2167C266.198 50.4352 266.08 50.6704 265.862 50.7377C265.828 50.7377 265.778 50.7545 265.744 50.7545L265.727 50.7713Z" fill="black"/>
    <path d="M280.055 51.6624C279.954 51.6624 279.853 51.6288 279.769 51.5448C279.601 51.3935 279.601 51.1246 279.752 50.9566L283.065 47.4444C283.216 47.2763 283.485 47.2763 283.653 47.4444C283.822 47.6124 283.822 47.8645 283.67 48.0326L280.357 51.5448C280.273 51.6288 280.156 51.6792 280.055 51.6792V51.6624Z" fill="black"/>
    <path d="M283.57 50.721L281.215 50.3681C280.98 50.3345 280.828 50.1161 280.862 49.8976C280.896 49.6623 281.114 49.5111 281.333 49.5447L283.637 49.8976C283.872 49.9312 284.024 50.1497 283.99 50.3681C283.956 50.5698 283.788 50.721 283.57 50.721Z" fill="black"/>
    <path d="M269.578 54.5192C268.317 54.5192 267.291 53.4941 267.24 53.4437C267.14 53.3429 267.106 53.1916 267.14 53.0572C267.173 52.9228 267.274 52.8051 267.409 52.7547L272.184 51.1751C272.336 51.1246 272.504 51.1751 272.605 51.2759C272.723 51.3767 272.756 51.5448 272.723 51.696C272.706 51.7632 272.184 53.4941 270.604 54.2839C270.251 54.452 269.914 54.536 269.578 54.536V54.5192ZM268.434 53.3093C268.905 53.5949 269.578 53.8638 270.234 53.5277C270.856 53.2252 271.276 52.7043 271.545 52.2674L268.434 53.2925V53.3093Z" fill="black"/>
    <path d="M271.26 46.2176C270.974 46.184 270.806 45.9823 270.839 45.747L271.125 43.4784C271.159 43.2431 271.377 43.0919 271.596 43.1087C271.831 43.1423 271.983 43.344 271.966 43.5792L271.68 45.8479C271.646 46.0663 271.478 46.2176 271.26 46.2176Z" fill="black"/>
    <path d="M264.5 45.6629C264.214 45.6293 264.046 45.4108 264.079 45.1755L264.416 42.9069C264.449 42.6716 264.668 42.5204 264.887 42.554C265.122 42.5876 265.273 42.806 265.24 43.0245L264.903 45.2932C264.87 45.4948 264.685 45.6461 264.483 45.6461L264.5 45.6629Z" fill="black"/>
    <path d="M273.378 42.5538C273.227 42.5538 273.076 42.4698 273.008 42.3185C272.47 41.2598 271.007 41.5623 270.94 41.5623C270.721 41.6127 270.486 41.4615 270.436 41.243C270.385 41.0246 270.536 40.7893 270.755 40.7389C270.839 40.7221 272.908 40.302 273.748 41.932C273.849 42.1337 273.782 42.3858 273.563 42.5034C273.496 42.537 273.429 42.5538 273.378 42.5538Z" fill="black"/>
    <path d="M266.232 40.7895C266.097 40.7895 265.962 40.7223 265.878 40.6046C265.677 40.3021 265.441 40.1341 265.155 40.1005C264.584 40.0333 263.911 40.487 263.692 40.6718C263.524 40.8231 263.255 40.8063 263.104 40.6382C262.952 40.4702 262.969 40.2013 263.137 40.0501C263.171 40.0165 264.18 39.1258 265.256 39.277C265.794 39.3443 266.232 39.6299 266.585 40.1341C266.719 40.3189 266.669 40.5878 266.467 40.7223C266.4 40.7727 266.316 40.7895 266.232 40.7895Z" fill="black"/>
    <path d="M262.465 87.3218V123.503C262.465 125.889 260.514 127.838 258.127 127.838H203.524C201.136 127.838 199.186 125.889 199.186 123.503V87.3218C199.186 84.9355 201.136 83.0029 203.524 83.0029H258.127C260.514 83.0029 262.465 84.9355 262.465 87.3218Z" fill="#FFA143"/>
    <path d="M235.155 87.3218V123.503C235.155 125.889 233.928 127.838 232.431 127.838H198.109C196.612 127.838 195.385 125.889 195.385 123.503V87.3218C195.385 84.9355 196.612 83.0029 198.109 83.0029H232.431C233.928 83.0029 235.155 84.9355 235.155 87.3218Z" fill="#FCB465"/>
    <path d="M193.115 113.689C193.115 113.689 185.127 112.243 187.852 108.714C190.559 105.185 205.223 104.345 206.501 108.798C207.779 113.235 193.132 113.705 193.132 113.705L193.115 113.689Z" fill="#F4A88E"/>
    <rect x="199" y="105.5" width="11" height="22" fill="#D9D9D9"/>
    <path d="M193.568 120.377C193.568 120.377 185.58 118.931 188.305 115.402C191.012 111.873 205.676 111.033 206.954 115.486C208.232 119.923 193.585 120.393 193.585 120.393L193.568 120.377Z" fill="#F4A88E"/>
    <path d="M195.838 126.712C195.838 126.712 188.658 126.662 190.491 123.167C192.324 119.671 204.986 116.747 206.752 120.427C208.535 124.108 195.822 126.712 195.822 126.712H195.838Z" fill="#F4A88E"/>
    <path d="M191.08 113.571C190.861 113.571 190.676 113.403 190.659 113.184C190.659 112.949 190.827 112.748 191.046 112.731L200.631 112.109C200.867 112.075 201.068 112.26 201.085 112.495C201.085 112.731 200.917 112.932 200.698 112.949L191.113 113.571C191.113 113.571 191.096 113.571 191.08 113.571Z" fill="black"/>
    <path d="M194.511 120.747C194.309 120.747 194.141 120.613 194.091 120.394C194.057 120.159 194.208 119.94 194.427 119.907L203.054 118.327C203.272 118.277 203.508 118.428 203.541 118.663C203.575 118.898 203.424 119.117 203.205 119.151L194.578 120.73C194.578 120.73 194.528 120.73 194.494 120.73L194.511 120.747Z" fill="black"/>
    <path d="M278.441 47.2423C278.441 47.2423 280.375 40.9069 276.272 39.3272C272.152 37.7644 267.443 38.4702 267.561 33.6976C267.678 28.9251 269.007 29.446 269.007 29.446C269.007 29.446 270.218 28.1856 274.725 28.757C279.231 29.3284 278.39 29.7317 278.39 29.7317C278.39 29.7317 282.023 29.5636 284.411 31.6979C286.799 33.8489 285.756 38.4366 285.756 38.4366C285.756 38.4366 286.109 38.1173 285.638 40.9237C285.167 43.7301 284.276 45.3097 284.276 45.3097C284.276 45.3097 283.082 45.1585 278.458 47.2591L278.441 47.2423Z" fill="black"/>
    <path d="M292.297 93.1532C292.297 93.1532 273.984 116.327 259 119.537C244.017 122.746 261.741 133.199 261.741 133.199C261.741 133.199 305.027 129.183 309.769 104.715C312.712 89.4561 292.297 93.1532 292.297 93.1532Z" fill="#F4A88E"/>
    <path d="M291.304 65.022C291.304 65.022 306.153 66.2319 310.054 86.6161C313.384 104.093 305.026 118.747 305.026 118.747L277.498 101.304L291.304 65.022Z" fill="#FF7500"/>
    <path d="M255.553 120.646C255.553 120.646 246.355 114.915 245.211 116.411C244.068 117.907 248.961 124.309 248.961 124.309L245.043 127.838H232.431L233.541 130.124C233.541 130.124 230.379 130.04 230.766 132.04C231.153 134.039 240.621 138.341 248.659 139.501C256.697 140.644 268.081 129.536 268.081 129.536L255.537 120.646H255.553Z" fill="#F4A88E"/>
    <path d="M243.497 130.544H233.542C233.306 130.544 233.121 130.359 233.121 130.124C233.121 129.888 233.306 129.703 233.542 129.703H243.261L244.674 127.603C244.808 127.418 245.061 127.368 245.262 127.485C245.447 127.62 245.515 127.872 245.38 128.073L243.85 130.359C243.766 130.476 243.648 130.544 243.497 130.544Z" fill="black"/>
    <path d="M269.948 214.333C269.73 214.333 269.545 214.165 269.528 213.929L266.383 147.735L255.368 141.702C255.167 141.585 255.083 141.333 255.2 141.131C255.318 140.929 255.57 140.862 255.772 140.963L267.005 147.113C267.14 147.181 267.224 147.315 267.224 147.466L270.385 213.896C270.385 214.131 270.217 214.316 269.982 214.333H269.965H269.948Z" fill="white"/>
    <path d="M300.402 142.643C293.238 142.643 288.244 135.484 288.025 135.165C287.891 134.98 287.941 134.711 288.126 134.577C288.328 134.442 288.58 134.493 288.715 134.678C288.765 134.762 294.214 142.559 301.545 141.736C301.764 141.702 301.983 141.87 302.016 142.105C302.05 142.341 301.882 142.542 301.646 142.576C301.226 142.626 300.806 142.643 300.402 142.643Z" fill="white"/>
    <path d="M249.516 255.689C249.516 255.689 249.432 255.689 249.381 255.672C249.162 255.605 249.045 255.353 249.129 255.135L268.821 198.217C268.888 197.998 269.14 197.881 269.359 197.965C269.577 198.032 269.695 198.284 269.611 198.503L249.919 255.42C249.852 255.588 249.701 255.706 249.516 255.706V255.689Z" fill="white"/>
    <path d="M307.902 258.681C307.684 258.681 307.499 258.513 307.482 258.294C307.431 257.572 302.672 186.269 301.159 172.842C299.645 159.415 297.14 142.459 297.106 142.291C297.073 142.055 297.224 141.854 297.459 141.82C297.678 141.786 297.897 141.938 297.93 142.173C297.964 142.341 300.469 159.314 301.983 172.758C303.496 186.202 308.255 257.538 308.306 258.244C308.306 258.479 308.138 258.681 307.919 258.697C307.919 258.697 307.902 258.697 307.885 258.697L307.902 258.681Z" fill="white"/>
    <path d="M301.597 274.595H288.379C288.194 274.595 288.026 274.46 287.975 274.275C287.925 274.09 288.009 273.906 288.177 273.805L297.224 268.612C297.426 268.494 297.678 268.562 297.796 268.763C297.914 268.965 297.847 269.217 297.645 269.335L289.96 273.754H301.613C301.849 273.754 302.034 273.939 302.034 274.174C302.034 274.41 301.849 274.595 301.613 274.595H301.597Z" fill="#AD4D40"/>
    <path d="M221.248 259.101C221.248 259.101 221.113 259.101 221.046 259.05L209.88 252.917C209.678 252.799 209.594 252.547 209.712 252.345C209.83 252.144 210.082 252.06 210.284 252.177L220.424 257.74L218.087 251.908C218.002 251.69 218.103 251.455 218.322 251.354C218.541 251.27 218.776 251.371 218.877 251.589L221.652 258.513C221.719 258.681 221.668 258.865 221.534 258.983C221.45 259.05 221.349 259.084 221.248 259.084V259.101Z" fill="#AD4D40"/>
    <path d="M285.621 47.2425C285.621 47.2425 258.563 35.5968 257.016 33.1265C255.469 30.6562 264.331 33.4122 264.331 33.4122C264.331 33.4122 269.729 22.5395 281.736 28.6228C292.667 34.1684 285.621 47.2425 285.621 47.2425Z" fill="#FF7500"/>
    <path d="M304.203 118.612C304.203 118.612 304.052 118.595 303.984 118.545L278.827 102.782C278.642 102.664 278.575 102.429 278.676 102.227L282.056 95.6231C282.157 95.4214 282.409 95.3374 282.628 95.4382C282.829 95.5391 282.913 95.7911 282.813 96.0096L279.601 102.278L304.438 117.839C304.64 117.957 304.691 118.226 304.573 118.41C304.489 118.545 304.354 118.612 304.22 118.612H304.203Z" fill="#CE5800"/>
    <path d="M264.499 64.9715C264.499 64.9715 264.819 63.1062 265.542 62.7701C266.265 62.434 270.015 64.3497 272.117 64.1985C274.236 64.0304 279.163 59.846 280.055 60.535C280.946 61.224 280.34 66.131 280.34 66.131L274.135 69.9289H268.064L264.466 68.3157V64.9715H264.499Z" fill="#FF7500"/>
    <path d="M275.481 68.7189C275.364 68.7189 275.246 68.6685 275.162 68.5677C275.01 68.3828 275.044 68.1308 275.229 67.9795L280.291 63.8623C280.476 63.7111 280.728 63.7447 280.879 63.9296C281.031 64.1144 280.997 64.3665 280.812 64.5177L275.75 68.6349C275.75 68.6349 275.582 68.7357 275.481 68.7357V68.7189Z" fill="#CE5800"/>
    <path d="M104.123 69.1895C104.123 69.1895 98.0352 72.0463 94.2851 68.3661C90.636 64.7699 92.2336 60.0645 92.2336 60.0645C92.2336 60.0645 88.5508 58.384 87.7436 54.2332C86.9364 50.0656 89.0889 46.5366 89.0889 46.5366C89.0889 46.5366 86.9196 41.0247 89.5093 37.5629C91.9981 34.2355 94.3524 34.1515 94.3524 34.1515C94.3524 34.1515 93.2762 30.0175 97.6148 27.0095C100.558 24.9593 104.089 26.27 104.089 26.27C104.089 26.27 105.098 21.7328 112.447 20.5732C119.14 19.5145 121.023 22.9595 121.023 22.9595C121.023 22.9595 125.967 20.2875 129.414 22.5058C132.862 24.724 132.593 28.3706 132.593 28.3706C132.593 28.3706 136.107 29.7654 136.898 33.3617C137.688 36.9411 137.183 38.7392 137.183 38.7392C137.183 38.7392 139.723 41.9825 139.773 45.5115C139.824 49.0238 138.428 50.8219 138.428 50.8219C138.428 50.8219 140.984 54.2668 140.412 57.2917C139.84 60.3166 138.394 61.14 138.394 61.14C138.394 61.14 138.461 66.6352 133.097 69.2063C129.078 71.1389 104.106 69.2063 104.106 69.2063L104.123 69.1895Z" fill="black"/>
    <path d="M80.0251 199.78C80.0251 200.402 79.5542 200.906 78.9657 200.906C78.3771 200.906 77.9062 200.402 77.9062 199.78C77.9062 199.158 78.3771 198.654 78.9657 198.654C79.5542 198.654 80.0251 199.158 80.0251 199.78Z" fill="white"/>
    <path d="M140.783 255.756L139.337 274.897L119.695 273.301V256.513L140.783 255.756Z" fill="#8E4B47"/>
    <path d="M68.4387 216.517L50.4453 215.66L51.2525 194.671L66.9757 194.066L68.4387 216.517Z" fill="#8E4B47"/>
    <path d="M147.206 127.519C147.206 127.519 159.886 163.229 159.617 195.477C159.365 227.726 150.603 262.629 150.603 262.629L112.145 263.436C112.145 263.436 118.602 229.188 119.157 221.306C119.712 213.425 121.158 163.498 121.158 163.498L121.578 129.569L147.206 127.502V127.519Z" fill="#B56A4D"/>
    <path d="M98.6569 127.519C98.6569 127.519 97.463 147.5 97.1098 157.768C96.7567 168.036 86.1624 181.832 77.5525 184.975C68.9426 188.117 60.5513 186.924 60.5513 186.924L59.4414 224.197C59.4414 224.197 88.5167 232.885 108.948 218.635C129.38 204.368 128.052 174.657 128.052 174.657L129.565 126.729L98.6569 127.536V127.519Z" fill="#B56A4D"/>
    <path d="M120.183 208.737C120.099 208.737 120.014 208.703 119.947 208.653C119.762 208.518 119.729 208.266 119.863 208.082C138.294 183.194 129.617 146.61 129.532 146.24C129.499 146.122 129.532 146.005 129.6 145.904C129.667 145.803 129.768 145.753 129.886 145.736L141.556 144.526C141.775 144.492 141.976 144.66 142.01 144.895C142.027 145.114 141.876 145.316 141.64 145.332L130.424 146.492C131.365 150.811 138.058 184.874 120.519 208.552C120.435 208.653 120.317 208.72 120.199 208.72L120.183 208.737Z" fill="#A0463A"/>
    <path d="M102.156 146.323C102.021 146.323 101.87 146.323 101.735 146.323C101.517 146.323 101.332 146.122 101.349 145.903C101.349 145.685 101.534 145.534 101.769 145.517C108.681 145.769 109.303 140.391 109.32 140.173C109.336 139.954 109.538 139.803 109.757 139.803C109.975 139.82 110.144 140.022 110.127 140.257C110.127 140.324 109.437 146.34 102.173 146.34L102.156 146.323Z" fill="#A0463A"/>
    <path d="M35.0083 190.083C33.7976 190.655 34.1003 199.124 33.848 199.83C33.5958 200.536 37.968 203.074 37.1608 204.367C36.3536 205.661 34.0666 207.123 32.9063 209.039C31.8132 210.821 29.1731 241.775 29.3917 247.841C29.4085 248.346 29.8457 248.732 30.3502 248.682C31.6114 248.581 34.0666 248.312 36.5554 247.556C38.792 246.867 41.0958 245.791 42.5588 244.077C46.4266 239.641 48.68 229.726 51.3033 226.315C53.9098 222.886 59.7955 219.374 58.9547 217.089C58.0971 214.803 53.6912 210.199 54.902 204.334C56.1127 198.469 57.7271 195.864 56.5163 194.133C55.7428 193.041 47.856 191.495 41.8526 190.638C38.338 190.134 35.4624 189.865 35.0252 190.083H35.0083Z" fill="#507849"/>
    <path d="M95.7996 186.235C95.3792 186.235 94.9924 186.1 94.6056 185.832C92.1841 184.101 91.276 176.975 91.2423 176.673C91.2255 176.505 91.3096 176.32 91.4778 176.253C91.6459 176.186 91.8309 176.219 91.9486 176.354C92.9576 177.463 97.9689 183.126 97.2458 185.327C97.1449 185.647 96.8758 186.05 96.2031 186.201C96.0686 186.235 95.9341 186.235 95.7996 186.235ZM92.2513 177.95C92.6717 180.37 93.6303 184.134 95.0765 185.176C95.396 185.395 95.6987 185.479 96.035 185.411C96.3545 185.344 96.4386 185.21 96.4722 185.092C96.859 183.916 94.3702 180.454 92.2681 177.967L92.2513 177.95Z" fill="#A0463A"/>
    <path d="M116.819 292.29C117.475 293.517 125.345 292.358 126.018 292.559C126.707 292.761 128.624 287.854 129.919 288.593C131.214 289.316 132.795 291.601 134.695 292.66C136.461 293.635 165.603 293.399 171.237 292.559C171.708 292.492 172.01 291.988 171.926 291.467C171.708 290.139 171.22 287.551 170.261 284.997C169.404 282.678 168.176 280.359 166.427 278.964C161.904 275.301 152.436 273.872 149.006 271.436C145.558 268.999 141.707 263.1 139.639 264.226C137.587 265.352 133.736 270.494 128.137 269.772C122.554 269.066 119.964 267.604 118.45 269.066C117.509 269.99 116.836 278.527 116.634 284.98C116.517 288.761 116.55 291.837 116.786 292.29H116.819Z" fill="#507849"/>
    <path d="M116.819 292.29C117.475 293.517 125.345 292.358 126.018 292.559C126.707 292.761 128.624 287.854 129.919 288.593C131.214 289.316 132.795 291.601 134.695 292.66C136.46 293.635 165.603 293.399 171.237 292.559C171.707 292.492 172.01 291.988 171.926 291.467C171.707 290.139 171.22 287.551 170.261 284.997H116.651C116.533 288.778 116.567 291.853 116.802 292.307L116.819 292.29Z" fill="#F7C537"/>
    <path d="M35.0248 189.915C33.8141 190.487 34.0495 199.007 33.7973 199.712C33.545 200.418 37.9004 202.989 37.0764 204.3C36.2692 205.611 33.9654 207.056 32.7883 208.972C31.6952 210.77 28.8196 241.909 29.0046 248.009C29.0214 248.514 29.4418 248.9 29.9631 248.867C31.2244 248.783 33.6795 248.53 36.1852 247.774L41.8522 190.503C38.3376 189.966 35.4621 189.697 35.0248 189.898V189.915Z" fill="#F7C537"/>
    <path d="M142.145 83.7256L125.228 100.951C125.228 100.951 133.249 109.471 154.992 112.865C170.077 115.218 182.453 114.008 182.453 114.008C182.453 114.008 189.785 115.924 196.764 114.966C201.826 114.277 206.938 110.378 209.359 108.277C209.982 107.74 209.696 106.748 208.888 106.597L206.416 106.143C206.416 106.143 209.275 105.253 209.813 103.639C210.351 102.026 204.079 103.286 204.079 103.286C204.079 103.286 206.938 101.32 204.079 101.135C201.22 100.951 195.671 102.379 191.904 102.211L188.154 102.026C188.154 102.026 193.703 99.3204 192.442 97.1862C191.198 95.052 185.817 98.0937 184.034 98.8163C182.251 99.5389 180.284 100.967 180.284 100.967C180.284 100.967 154.421 97.1358 142.111 83.7424L142.145 83.7256Z" fill="#8E4B47"/>
    <path d="M130.895 66.501C130.895 66.501 137.419 72.9876 143.372 78.466C150.385 84.9358 155.127 89.6916 155.127 89.6916L138.731 111.723L133.837 107.79L130.895 66.501Z" fill="#FFB255"/>
    <path d="M103.787 64.9043C103.787 64.9043 89.2579 70.7188 88.6693 86.0279C88.0807 101.337 97.4137 129.855 97.4137 129.855C97.4137 129.855 122.537 133.602 130.912 132.409C139.269 131.216 124.639 86.0279 124.639 86.0279L103.787 64.9043Z" fill="#FFB255"/>
    <path d="M146.248 129.216C146.248 129.216 145.491 77.5751 130.978 66.484C116.466 55.4096 101.079 66.484 101.079 66.484L102.963 127.687C102.963 127.687 128.305 137.266 146.248 129.216Z" fill="#FFB255"/>
    <path d="M126.254 102.446L110.732 121.385C110.732 121.385 121.613 129.284 135.486 131.67C144.785 133.266 162.644 135.064 170.514 133.703C176.013 132.762 179.999 129.805 181.899 128.124C182.538 127.569 182.387 126.544 181.63 126.175L180.318 125.519C180.318 125.519 180.638 125.671 181.075 124.074C181.529 122.461 176.316 123.721 176.316 123.721C176.316 123.721 178.704 121.755 176.316 121.57C173.928 121.385 169.32 122.814 166.192 122.646L163.065 122.461C163.065 122.461 167.185 119.117 166.63 117.621C166.058 116.075 161.131 118.528 159.634 119.251C158.154 119.974 156.506 121.402 156.506 121.402C156.506 121.402 136.444 115.857 126.203 102.463L126.254 102.446Z" fill="#8E4B47"/>
    <path d="M109.639 53.4771L109.79 63.2238C109.79 63.2238 111.589 65.9966 117.307 66.3663C121.561 66.652 123.041 65.6605 123.041 65.6605L122.369 60.7367L121.713 55.9306L111.388 53.83L109.655 53.4771H109.639Z" fill="#8E4B47"/>
    <path d="M167.553 126.594C167.351 126.594 167.166 126.426 167.15 126.225C167.133 126.006 167.301 125.805 167.52 125.788C167.57 125.788 173.271 125.317 176.113 123.368C176.298 123.234 176.55 123.284 176.684 123.469C176.819 123.654 176.769 123.906 176.584 124.04C173.557 126.124 167.839 126.578 167.587 126.594C167.587 126.594 167.57 126.594 167.553 126.594Z" fill="black"/>
    <path d="M169.185 130.258C168.966 130.258 168.781 130.074 168.781 129.855C168.781 129.637 168.949 129.452 169.185 129.435C169.252 129.435 176.012 129.267 180.065 125.217C180.216 125.066 180.485 125.066 180.637 125.217C180.788 125.368 180.788 125.637 180.637 125.788C176.332 130.057 169.488 130.242 169.185 130.242V130.258Z" fill="black"/>
    <path d="M92.1672 87.5064C92.1672 87.5064 91.8813 104.832 100.205 114.579C108.529 124.326 110.531 124.779 110.531 124.779L129.331 101.286C129.331 101.286 114.331 84.1622 111.708 77.726C109.084 71.2897 107.083 67.3574 107.083 67.3574L92.1672 87.5064Z" fill="#FFB255"/>
    <path d="M197.924 109.958C197.823 109.958 197.739 109.924 197.655 109.857L191.669 104.631C191.5 104.479 191.484 104.227 191.635 104.059C191.786 103.891 192.039 103.874 192.207 104.026L198.025 109.117C199.001 108.899 203.272 107.891 205.357 106.597C205.542 106.479 205.794 106.529 205.912 106.731C206.03 106.916 205.979 107.168 205.777 107.286C203.305 108.815 198.21 109.907 197.992 109.958C197.958 109.958 197.941 109.958 197.907 109.958H197.924Z" fill="black"/>
    <path d="M195.149 106.395C194.678 106.395 194.191 106.362 193.703 106.311C193.485 106.278 193.316 106.076 193.35 105.858C193.384 105.639 193.585 105.454 193.804 105.505C198.765 106.11 203.843 102.967 203.894 102.934C204.079 102.816 204.331 102.866 204.449 103.068C204.566 103.253 204.516 103.505 204.314 103.623C204.112 103.74 199.841 106.395 195.133 106.395H195.149Z" fill="black"/>
    <path d="M110.53 125.183C110.446 125.183 110.345 125.149 110.261 125.099C110.076 124.948 110.059 124.696 110.194 124.511L128.776 101.286L121.309 92.3631C121.158 92.1783 121.192 91.9262 121.36 91.7749C121.528 91.6237 121.797 91.6405 121.948 91.8254L129.633 101.018C129.768 101.169 129.768 101.387 129.633 101.555L110.833 125.048C110.749 125.149 110.631 125.2 110.496 125.2L110.53 125.183Z" fill="white"/>
    <path d="M111.371 53.8301C111.405 54.099 111.506 54.4014 111.674 54.7711C113.927 59.6109 119.914 60.552 122.369 60.7369L121.713 55.9307L111.388 53.8301H111.371Z" fill="black"/>
    <path d="M123.528 33.6974C123.528 33.6974 128.842 45.8305 126.925 52.6533C125.008 59.476 118.803 58.4005 115.086 57.0897C111.37 55.779 109.638 53.4935 109.638 53.4935C109.638 53.4935 106.157 54.6698 103.836 51.4433C101.516 48.2168 102.945 44.5029 104.929 43.6627C106.914 42.8056 109.268 44.2509 109.268 44.2509L107.418 40.7219C107.418 40.7219 115.187 22.7911 123.528 33.7143V33.6974Z" fill="#8E4B47"/>
    <path d="M122.974 49.0906C122.974 49.0906 122.906 49.0906 122.856 49.0738C122.671 49.0066 122.553 48.8049 122.621 48.6201C123.327 46.385 121.662 43.9483 121.645 43.9315C121.527 43.7635 121.578 43.545 121.746 43.4274C121.914 43.3098 122.133 43.3602 122.251 43.5282C122.335 43.6459 124.134 46.2842 123.31 48.8553C123.26 49.0066 123.108 49.1074 122.957 49.1074L122.974 49.0906Z" fill="black"/>
    <path d="M108.714 49.8805C108.613 49.8805 108.512 49.8469 108.444 49.7628L105.165 46.2506C105.031 46.0994 105.031 45.8641 105.182 45.7297C105.333 45.5952 105.569 45.5952 105.703 45.7465L108.983 49.2587C109.117 49.4099 109.117 49.6452 108.966 49.7796C108.899 49.8469 108.798 49.8805 108.714 49.8805Z" fill="black"/>
    <path d="M105.232 48.9229C105.047 48.9229 104.896 48.7885 104.862 48.6037C104.828 48.402 104.98 48.2171 105.165 48.1835L107.452 47.8474C107.654 47.797 107.839 47.9651 107.872 48.1499C107.906 48.3516 107.755 48.5364 107.57 48.57L105.283 48.9061C105.283 48.9061 105.249 48.9061 105.232 48.9061V48.9229Z" fill="black"/>
    <path d="M119.123 52.7881C118.804 52.7881 118.451 52.7209 118.114 52.536C116.567 51.7462 116.063 50.0489 116.046 49.9817C116.012 49.8472 116.046 49.7128 116.147 49.612C116.248 49.5111 116.382 49.4943 116.517 49.5279L121.259 51.1412C121.377 51.1748 121.461 51.2756 121.494 51.4101C121.528 51.5277 121.494 51.6621 121.393 51.7462C121.343 51.7966 120.351 52.7881 119.123 52.7881ZM117.072 50.5026C117.341 50.9732 117.778 51.5445 118.451 51.8974C119.157 52.2503 119.914 51.931 120.384 51.6285L117.072 50.5026Z" fill="black"/>
    <path d="M115.423 40.1847C115.423 40.1847 115.305 40.1847 115.255 40.1343C115.07 40.0335 115.003 39.815 115.104 39.647C115.911 38.1009 118.467 38.269 118.568 38.2858C118.769 38.2858 118.921 38.4706 118.904 38.6723C118.904 38.874 118.702 38.9916 118.517 39.0084C117.912 38.9748 116.23 39.0588 115.743 39.9831C115.675 40.1007 115.558 40.1847 115.423 40.1847Z" fill="black"/>
    <path d="M124.79 38.8399C124.689 38.8399 124.588 38.7895 124.504 38.7055C124.437 38.6214 123.764 37.9156 122.705 38.571C122.537 38.6718 122.301 38.6214 122.2 38.4534C122.099 38.2853 122.15 38.0501 122.318 37.9492C123.63 37.1426 124.689 37.7812 125.076 38.2349C125.21 38.3862 125.194 38.6214 125.025 38.7559C124.958 38.8063 124.874 38.8399 124.79 38.8399Z" fill="black"/>
    <path d="M117.508 44.5199C117.323 44.5199 117.172 44.3854 117.138 44.2006L116.869 41.9319C116.869 41.8479 116.869 41.7471 116.936 41.663L117.861 40.4027C117.979 40.2346 118.214 40.201 118.366 40.3187C118.534 40.4363 118.568 40.6716 118.45 40.8396L117.609 41.9823L117.861 44.0997C117.878 44.3014 117.744 44.4863 117.542 44.5031C117.542 44.5031 117.508 44.5031 117.491 44.5031L117.508 44.5199Z" fill="black"/>
    <path d="M124.219 44.0327C124.034 44.0327 123.882 43.8983 123.849 43.7134L123.529 41.4616C123.529 41.3776 123.529 41.2935 123.58 41.2095L124.37 39.9492C124.471 39.7811 124.706 39.7307 124.875 39.8315C125.043 39.9323 125.093 40.1676 124.992 40.3357L124.269 41.4784L124.572 43.6126C124.606 43.8143 124.454 43.9991 124.252 44.0327C124.236 44.0327 124.219 44.0327 124.202 44.0327H124.219Z" fill="black"/>
    <path d="M120.148 33.2779C120.148 33.2779 119.459 37.0422 117.037 38.2858C114.616 39.5293 112.076 39.4789 112.076 39.4789C112.076 39.4789 113.523 41.361 112.245 42.7054C110.983 44.0498 109.268 44.2347 109.268 44.2347L104.795 40.4032L110.849 30.5556L121.964 28.3037L125.748 34.7904L126.034 40.1007C126.034 40.1007 124.1 33.2443 120.148 33.3115V33.2779Z" fill="black"/>
    <path d="M117.879 66.904C117.694 66.904 117.509 66.904 117.324 66.904C111.875 66.7696 108.832 63.1901 108.714 63.0389C108.562 62.854 108.596 62.602 108.764 62.4507C108.932 62.2995 109.202 62.3163 109.353 62.5011C109.386 62.5347 112.296 65.9461 117.341 66.0638C122.301 66.1982 123.563 64.669 123.563 64.6522C123.697 64.4673 123.966 64.4337 124.151 64.5849C124.336 64.7194 124.37 64.9882 124.235 65.1563C124.185 65.2235 122.89 66.904 117.862 66.904H117.879Z" fill="white"/>
    <path d="M141.59 97.4217C141.355 97.4217 141.17 97.2368 141.17 97.0016C141.187 80.7849 131.584 75.8443 131.484 75.7939C131.282 75.6931 131.198 75.441 131.299 75.2393C131.4 75.0377 131.652 74.9369 131.854 75.0545C131.954 75.1049 142.027 80.2472 142.011 97.0184C142.011 97.2536 141.826 97.4385 141.59 97.4385V97.4217Z" fill="white"/>
    <path d="M97.9026 295.483L10.0974 292.111C6.17694 292.111 3 288.941 3 285.029V10.9538C3 7.04207 6.17694 3.8722 10.0974 3.8722L97.9026 0.5C101.823 0.5 105 3.66987 105 7.58162V288.418C105 292.33 101.823 295.5 97.9026 295.5V295.483Z" fill="#CCC5D1"/>
    <path d="M84.5 157.5C82.5725 157.5 81 155.97 81 154.095V125.905C81 124.03 82.5725 122.5 84.5 122.5C86.4275 122.5 88 124.03 88 125.905V154.095C88 155.97 86.4275 157.5 84.5 157.5Z" fill="#EAE6ED"/>
    <path d="M84 147.5C87.3137 147.5 90 144.142 90 140C90 135.858 87.3137 132.5 84 132.5C80.6863 132.5 78 135.858 78 140C78 144.142 80.6863 147.5 84 147.5Z" fill="#B1A7B7"/>
    <path d="M2.5 51.5C1.11635 51.5 0 50.3027 0 48.8187V24.1813C0 22.6973 1.11635 21.5 2.5 21.5C3.88365 21.5 5 22.6973 5 24.1813V48.8187C5 50.3027 3.88365 51.5 2.5 51.5Z" fill="#DFDCE2"/>
    <path d="M3 271.5C1.33962 271.5 0 270.303 0 268.819V244.181C0 242.697 1.33962 241.5 3 241.5C4.66038 241.5 6 242.697 6 244.181V268.819C6 270.303 4.66038 271.5 3 271.5Z" fill="#DFDCE2"/>
    <path d="M86 151C86 151.825 85.3232 152.5 84.5 152.5C83.6768 152.5 83 151.825 83 151C83 150.175 83.6768 149.5 84.5 149.5C85.3232 149.5 86 150.175 86 151Z" fill="#998EA0"/>
    <path d="M84.2465 151.5L83 155.5H86L84.2465 151.5Z" fill="#998EA0"/>
</svg>
